<?xml version="1.0" encoding="utf-8"?>
<!-- Generator: Adobe Illustrator 16.0.0, SVG Export Plug-In . SVG Version: 6.00 Build 0)  -->
<!DOCTYPE svg PUBLIC "-//W3C//DTD SVG 1.1//EN" "http://www.w3.org/Graphics/SVG/1.1/DTD/svg11.dtd">
<svg version="1.1" xmlns="http://www.w3.org/2000/svg" xmlns:xlink="http://www.w3.org/1999/xlink" x="0px" y="0px"
	 width="67.242px" height="58.232px" viewBox="0 0 67.242 58.232" enable-background="new 0 0 67.242 58.232" xml:space="preserve">
<g id="heaxagon">
	<g>
		<polygon fill="#FFFFFF" points="18.254,55.731 2.887,29.117 18.254,2.5 48.988,2.5 64.355,29.117 48.988,55.731 		"/>
		<path fill="#0281C3" d="M47.544,5l13.924,24.117L47.544,53.231H19.697L5.773,29.117L19.697,5H47.544 M50.431,0H16.811L0,29.117
			l16.811,29.114h33.621l16.811-29.114L50.431,0L50.431,0z"/>
	</g>
</g>
<g id="Text_Original" display="none">
	
		<text transform="matrix(1 0 0 1 11.2192 36.1064)" display="inline" fill="#575756" font-family="'CenturyGothic-Bold'" font-size="20">CMS</text>
</g>
<g id="Text_Original_Kopie" display="none">
	
		<text transform="matrix(1 0 0 1 11.2192 36.1064)" display="inline" fill="#575756" font-family="'CenturyGothic-Bold'" font-size="20">CMS</text>
</g>
<g id="Text_Original_Kopie_Kopie" display="none">
	
		<text transform="matrix(1 0 0 1 11.2192 36.1064)" display="inline" fill="#575756" font-family="'CenturyGothic-Bold'" font-size="20">CMS</text>
</g>
<g id="Text_Original_Kopie_Kopie_Kopie">
	<g>
		<path fill="#575756" d="M35.943,24.361l-1.912,1.823c-1.301-1.375-2.765-2.063-4.391-2.063c-1.373,0-2.529,0.469-3.469,1.407
			c-0.94,0.938-1.41,2.096-1.41,3.471c0,0.958,0.208,1.809,0.625,2.552c0.416,0.742,1.005,1.326,1.766,1.749
			c0.761,0.424,1.606,0.636,2.537,0.636c0.793,0,1.519-0.148,2.176-0.444c0.656-0.297,1.379-0.836,2.166-1.618l1.854,1.935
			c-1.062,1.035-2.063,1.754-3.008,2.154s-2.021,0.601-3.232,0.601c-2.233,0-4.061-0.708-5.483-2.124s-2.134-3.23-2.134-5.444
			c0-1.433,0.324-2.705,0.972-3.818s1.576-2.009,2.783-2.686s2.508-1.016,3.901-1.016c1.185,0,2.326,0.25,3.423,0.751
			C34.203,22.727,35.149,23.438,35.943,24.361z"/>
		<path fill="#575756" d="M38.335,21.837h2.734v11.758h3.984v2.607h-6.719V21.837z"/>
	</g>
</g>
<g id="FF_1_" display="none">
	<g display="inline">
		<path fill="#575756" d="M25.276,21.837h7.129v2.666h-4.414v2.607h4.414v2.627h-4.414v6.465h-2.715V21.837z"/>
		<path fill="#575756" d="M34.876,21.837h7.129v2.666h-4.414v2.607h4.414v2.627h-4.414v6.465h-2.715V21.837z"/>
	</g>
</g>
<g id="CMS" display="none">
	<g display="inline">
		<path fill="#575756" d="M26.043,24.407l-1.133,0.869c-0.625-0.813-1.375-1.431-2.251-1.851s-1.837-0.63-2.886-0.63
			c-1.146,0-2.207,0.275-3.184,0.825s-1.733,1.289-2.271,2.217s-0.806,1.971-0.806,3.13c0,1.751,0.601,3.213,1.802,4.385
			s2.716,1.758,4.546,1.758c2.012,0,3.695-0.788,5.049-2.363l1.133,0.859c-0.716,0.911-1.61,1.616-2.681,2.114
			s-2.267,0.747-3.589,0.747c-2.513,0-4.496-0.837-5.947-2.51C12.609,32.545,12,30.84,12,28.841c0-2.103,0.737-3.872,2.212-5.308
			s3.322-2.153,5.542-2.153c1.341,0,2.552,0.265,3.633,0.796C24.468,22.706,25.354,23.45,26.043,24.407z"/>
		<path fill="#575756" d="M28.27,36.106l2.057-14.365h0.233l5.84,11.787l5.784-11.787h0.229l2.067,14.365h-1.408l-1.419-10.273
			l-5.079,10.273h-0.367l-5.14-10.352l-1.411,10.352H28.27z"/>
		<path fill="#575756" d="M45.819,33.431l1.221-0.732c0.859,1.582,1.853,2.373,2.979,2.373c0.481,0,0.935-0.112,1.357-0.337
			s0.745-0.525,0.967-0.903s0.332-0.778,0.332-1.201c0-0.481-0.163-0.954-0.488-1.416c-0.449-0.638-1.27-1.406-2.461-2.305
			c-1.198-0.905-1.943-1.56-2.236-1.963c-0.508-0.677-0.762-1.409-0.762-2.197c0-0.625,0.149-1.194,0.449-1.709
			s0.721-0.92,1.265-1.216c0.544-0.297,1.135-0.444,1.772-0.444c0.677,0,1.311,0.167,1.899,0.503
			c0.589,0.335,1.213,0.952,1.87,1.851l-1.172,0.889c-0.54-0.716-1.001-1.188-1.382-1.416s-0.796-0.342-1.245-0.342
			c-0.579,0-1.053,0.176-1.421,0.527s-0.552,0.784-0.552,1.299c0,0.313,0.065,0.615,0.195,0.908s0.368,0.612,0.713,0.957
			c0.188,0.183,0.808,0.661,1.855,1.436c1.243,0.918,2.097,1.735,2.559,2.451s0.693,1.436,0.693,2.158
			c0,1.042-0.396,1.946-1.187,2.715s-1.753,1.152-2.886,1.152c-0.872,0-1.663-0.232-2.373-0.698S46.417,34.524,45.819,33.431z"/>
	</g>
</g>
<g id="OP" display="none">
	<g display="inline">
		<path fill="#575756" d="M27.605,21.573c2.176,0,3.997,0.726,5.462,2.178c1.466,1.452,2.199,3.239,2.199,5.361
			c0,2.104-0.731,3.887-2.194,5.352c-1.462,1.465-3.245,2.197-5.35,2.197c-2.13,0-3.928-0.729-5.394-2.188
			c-1.466-1.457-2.199-3.223-2.199-5.293c0-1.38,0.334-2.659,1.001-3.838c0.668-1.179,1.578-2.102,2.731-2.769
			C25.015,21.906,26.263,21.573,27.605,21.573z M27.668,22.969c-1.063,0-2.07,0.277-3.022,0.831s-1.695,1.3-2.23,2.237
			c-0.534,0.938-0.802,1.984-0.802,3.138c0,1.708,0.592,3.15,1.775,4.326c1.183,1.176,2.61,1.764,4.279,1.764
			c1.114,0,2.146-0.27,3.096-0.811s1.688-1.281,2.221-2.219c0.531-0.938,0.797-1.982,0.797-3.128c0-1.14-0.266-2.171-0.797-3.093
			c-0.532-0.923-1.28-1.66-2.245-2.214S28.751,22.969,27.668,22.969z"/>
		<path fill="#575756" d="M38.136,21.934h2.861c1.641,0,2.748,0.071,3.32,0.215c0.82,0.202,1.492,0.617,2.012,1.245
			c0.521,0.628,0.781,1.418,0.781,2.368c0,0.957-0.254,1.746-0.762,2.368s-1.207,1.04-2.1,1.255
			c-0.65,0.156-1.867,0.235-3.652,0.235h-1.025v6.68h-1.436V21.934z M39.572,23.34v4.873l2.432,0.029
			c0.984,0,1.703-0.089,2.158-0.268c0.457-0.179,0.814-0.468,1.074-0.868c0.262-0.399,0.391-0.846,0.391-1.34
			c0-0.48-0.129-0.921-0.391-1.32c-0.26-0.399-0.604-0.685-1.029-0.853c-0.428-0.169-1.125-0.254-2.096-0.254H39.572z"/>
	</g>
</g>
<g id="CL_1_" display="none">
	<g display="inline">
		<path fill="#575756" d="M35.72,24.599l-1.133,0.869c-0.625-0.813-1.375-1.431-2.251-1.851s-1.838-0.63-2.886-0.63
			c-1.146,0-2.207,0.275-3.184,0.825s-1.733,1.289-2.271,2.217s-0.806,1.971-0.806,3.13c0,1.752,0.601,3.213,1.802,4.385
			s2.716,1.758,4.546,1.758c2.012,0,3.694-0.787,5.049-2.363l1.133,0.859c-0.715,0.912-1.609,1.617-2.681,2.115
			s-2.268,0.746-3.589,0.746c-2.513,0-4.496-0.836-5.947-2.51c-1.217-1.412-1.826-3.117-1.826-5.117
			c0-2.103,0.737-3.872,2.212-5.308s3.322-2.153,5.542-2.153c1.341,0,2.552,0.265,3.633,0.796
			C34.146,22.897,35.031,23.642,35.72,24.599z"/>
		<path fill="#575756" d="M38.601,21.933h1.436v12.979h5.527v1.387h-6.963V21.933z"/>
	</g>
</g>
</svg>
