<?xml version="1.0" encoding="utf-8"?>
<!-- Generator: Adobe Illustrator 16.0.0, SVG Export Plug-In . SVG Version: 6.00 Build 0)  -->
<!DOCTYPE svg PUBLIC "-//W3C//DTD SVG 1.1//EN" "http://www.w3.org/Graphics/SVG/1.1/DTD/svg11.dtd" [
	<!ENTITY ns_extend "http://ns.adobe.com/Extensibility/1.0/">
	<!ENTITY ns_ai "http://ns.adobe.com/AdobeIllustrator/10.0/">
	<!ENTITY ns_graphs "http://ns.adobe.com/Graphs/1.0/">
	<!ENTITY ns_vars "http://ns.adobe.com/Variables/1.0/">
	<!ENTITY ns_imrep "http://ns.adobe.com/ImageReplacement/1.0/">
	<!ENTITY ns_sfw "http://ns.adobe.com/SaveForWeb/1.0/">
	<!ENTITY ns_custom "http://ns.adobe.com/GenericCustomNamespace/1.0/">
	<!ENTITY ns_adobe_xpath "http://ns.adobe.com/XPath/1.0/">
]>
<svg version="1.1" id="Ebene_1" xmlns:x="&ns_extend;" xmlns:i="&ns_ai;" xmlns:graph="&ns_graphs;"
	 xmlns="http://www.w3.org/2000/svg" xmlns:xlink="http://www.w3.org/1999/xlink" x="0px" y="0px" width="652.271px"
	 height="145.58px" viewBox="0 0 652.271 145.58" enable-background="new 0 0 652.271 145.58" xml:space="preserve">
<metadata>
	<sfw  xmlns="&ns_sfw;">
		<slices></slices>
		<sliceSourceBounds  height="16389.977" width="16383" x="-7893" y="-8619.977" bottomLeftOrigin="true"></sliceSourceBounds>
	</sfw>
</metadata>
<g>
	<path fill="#575756" d="M97.858,21.894l-7.894,6.057c-4.355-5.67-9.585-9.97-15.686-12.896c-6.103-2.927-12.806-4.389-20.11-4.389
		c-7.985,0-15.379,1.917-22.185,5.75c-6.805,3.834-12.08,8.982-15.823,15.448c-3.742,6.465-5.614,13.736-5.614,21.811
		c0,12.205,4.186,22.39,12.556,30.556c8.37,8.166,18.929,12.25,31.678,12.25c14.019,0,25.746-5.489,35.183-16.469L97.858,86
		c-4.991,6.352-11.218,11.263-18.68,14.733c-7.464,3.471-15.8,5.207-25.009,5.207c-17.512,0-31.327-5.83-41.444-17.49
		C4.241,78.605,0,66.719,0,52.791c0-14.654,5.137-26.983,15.414-36.987C25.689,5.8,38.562,0.798,54.033,0.798
		c9.345,0,17.784,1.849,25.315,5.546C86.879,10.043,93.049,15.225,97.858,21.894z"/>
	<path fill="#575756" d="M229.132,103.421L243.464,3.316h1.625l40.696,82.139l40.304-82.139h1.603L342.1,103.421h-9.813
		l-9.891-71.591l-35.394,71.591h-2.557l-35.816-72.135l-9.834,72.135H229.132z"/>
	<path fill="#575756" d="M402.666,3.316l46.684,100.104h-10.805L422.8,70.484h-43.125l-15.596,32.937h-11.16L400.216,3.316H402.666z
		 M401.402,24.585L384.25,60.821h34.224L401.402,24.585z"/>
	<path fill="#575756" d="M464.933,103.421V3.316h2.178l66.623,76.735V3.316h9.867v100.104h-2.245l-66.079-75.802v75.802H464.933z"/>
	<path fill="#575756" d="M567.964,103.421V3.316h20.755c14.972,0,25.836,1.202,32.598,3.606c9.708,3.403,17.296,9.301,22.764,17.693
		c5.466,8.395,8.2,18.398,8.2,30.011c0,10.027-2.168,18.851-6.499,26.473c-4.333,7.622-9.958,13.248-16.877,16.877
		c-6.919,3.63-16.616,5.444-29.093,5.444H567.964z M577.559,93.961h11.569c13.837,0,23.432-0.86,28.787-2.583
		c7.528-2.448,13.449-6.855,17.761-13.225c4.31-6.369,6.465-14.155,6.465-23.357c0-9.655-2.338-17.904-7.01-24.75
		c-4.673-6.845-11.184-11.536-19.531-14.075c-6.261-1.903-16.582-2.855-30.964-2.855h-7.077V93.961z"/>
</g>
<g>
	<path fill="#575756" d="M73.529,122.329l-1.661,1.274c-0.917-1.193-2.016-2.097-3.3-2.712c-1.283-0.616-2.694-0.923-4.23-0.923
		c-1.68,0-3.236,0.403-4.667,1.21c-1.432,0.806-2.541,1.889-3.329,3.25c-0.787,1.36-1.181,2.889-1.181,4.588
		c0,2.567,0.88,4.71,2.642,6.428c1.761,1.718,3.981,2.578,6.664,2.578c2.949,0,5.416-1.155,7.402-3.465l1.661,1.26
		c-1.051,1.336-2.36,2.37-3.93,3.1c-1.571,0.73-3.324,1.096-5.262,1.096c-3.685,0-6.591-1.227-8.719-3.68
		c-1.786-2.071-2.677-4.572-2.677-7.502c0-3.083,1.081-5.676,3.243-7.781c2.162-2.104,4.87-3.157,8.125-3.157
		c1.966,0,3.741,0.389,5.326,1.167C71.218,119.835,72.517,120.926,73.529,122.329z"/>
	<path fill="#575756" d="M84.796,123.503c2.4,0,4.388,0.868,5.966,2.605c1.434,1.584,2.151,3.46,2.151,5.626
		c0,2.176-0.758,4.078-2.274,5.706c-1.515,1.627-3.463,2.44-5.844,2.44c-2.391,0-4.344-0.813-5.859-2.44
		c-1.515-1.627-2.273-3.529-2.273-5.706c0-2.157,0.717-4.028,2.151-5.612C80.392,124.376,82.386,123.503,84.796,123.503z
		 M84.788,125.465c-1.666,0-3.098,0.615-4.295,1.847c-1.198,1.23-1.796,2.719-1.796,4.467c0,1.126,0.273,2.176,0.819,3.149
		c0.546,0.974,1.283,1.725,2.212,2.255c0.929,0.529,1.949,0.794,3.06,0.794c1.112,0,2.131-0.265,3.06-0.794
		c0.929-0.53,1.667-1.282,2.213-2.255c0.546-0.973,0.819-2.023,0.819-3.149c0-1.748-0.601-3.236-1.803-4.467
		C87.875,126.08,86.446,125.465,84.788,125.465z"/>
	<path fill="#575756" d="M96.622,123.904h2.004v2.791c0.801-1.068,1.689-1.868,2.663-2.397c0.974-0.53,2.033-0.794,3.179-0.794
		c1.164,0,2.197,0.296,3.099,0.888s1.568,1.388,1.998,2.391c0.43,1.002,0.644,2.563,0.644,4.682v8.018h-2.004v-7.431
		c0-1.794-0.074-2.992-0.223-3.594c-0.231-1.031-0.678-1.806-1.336-2.327c-0.658-0.52-1.518-0.78-2.577-0.78
		c-1.213,0-2.298,0.402-3.258,1.203s-1.592,1.794-1.897,2.978c-0.191,0.773-0.287,2.186-0.287,4.238v5.712h-2.004V123.904z"/>
	<path fill="#575756" d="M116.25,118.12h2.004v5.784h3.179v1.732h-3.179v13.845h-2.004v-13.845h-2.735v-1.732h2.735V118.12z"/>
	<path fill="#575756" d="M137.553,134.312l1.69,0.888c-0.555,1.088-1.195,1.966-1.921,2.634c-0.726,0.669-1.542,1.177-2.451,1.525
		c-0.907,0.349-1.934,0.522-3.081,0.522c-2.541,0-4.528-0.833-5.961-2.498c-1.433-1.665-2.15-3.548-2.15-5.648
		c0-1.976,0.607-3.737,1.82-5.283c1.538-1.965,3.597-2.949,6.176-2.949c2.656,0,4.776,1.007,6.362,3.021
		c1.127,1.423,1.701,3.198,1.719,5.326h-14.016c0.038,1.809,0.616,3.293,1.735,4.45c1.117,1.156,2.499,1.734,4.142,1.734
		c0.793,0,1.565-0.138,2.315-0.413c0.75-0.276,1.387-0.642,1.913-1.098S136.942,135.33,137.553,134.312z M137.553,130.118
		c-0.267-1.069-0.657-1.923-1.168-2.563c-0.511-0.639-1.188-1.154-2.028-1.546c-0.841-0.391-1.726-0.587-2.652-0.587
		c-1.529,0-2.843,0.492-3.942,1.475c-0.803,0.716-1.41,1.79-1.821,3.222H137.553z"/>
	<path fill="#575756" d="M143.495,123.904h2.004v2.791c0.801-1.068,1.689-1.868,2.663-2.397c0.974-0.53,2.033-0.794,3.178-0.794
		c1.164,0,2.197,0.296,3.099,0.888c0.902,0.592,1.568,1.388,1.998,2.391c0.43,1.002,0.645,2.563,0.645,4.682v8.018h-2.004v-7.431
		c0-1.794-0.075-2.992-0.223-3.594c-0.232-1.031-0.678-1.806-1.337-2.327c-0.658-0.52-1.517-0.78-2.577-0.78
		c-1.213,0-2.298,0.402-3.258,1.203s-1.592,1.794-1.897,2.978c-0.191,0.773-0.287,2.186-0.287,4.238v5.712h-2.004V123.904z"/>
	<path fill="#575756" d="M163.124,118.12h2.004v5.784h3.179v1.732h-3.179v13.845h-2.004v-13.845h-2.735v-1.732h2.735V118.12z"/>
	<path fill="#575756" d="M178.801,139.481l3.016-21.061h0.341l8.562,17.281l8.479-17.281h0.337l3.03,21.061h-2.063l-2.081-15.061
		l-7.446,15.061h-0.538l-7.535-15.176l-2.069,15.176H178.801z"/>
	<path fill="#575756" d="M221.894,123.904v15.577h-1.976v-2.677c-0.839,1.021-1.782,1.79-2.828,2.305
		c-1.045,0.515-2.188,0.772-3.429,0.772c-2.205,0-4.087-0.799-5.648-2.398c-1.561-1.599-2.341-3.543-2.341-5.834
		c0-2.243,0.788-4.161,2.363-5.755c1.574-1.593,3.469-2.391,5.683-2.391c1.279,0,2.437,0.271,3.472,0.816s1.944,1.36,2.727,2.448
		v-2.863H221.894z M213.884,125.436c-1.116,0-2.146,0.274-3.089,0.822c-0.944,0.548-1.695,1.318-2.253,2.31
		c-0.557,0.992-0.836,2.04-0.836,3.146c0,1.098,0.281,2.146,0.843,3.146c0.563,1.001,1.318,1.78,2.267,2.338
		c0.949,0.558,1.966,0.836,3.054,0.836c1.096,0,2.135-0.276,3.118-0.829c0.981-0.553,1.737-1.301,2.266-2.245
		s0.794-2.007,0.794-3.189c0-1.801-0.593-3.308-1.78-4.519C217.08,126.041,215.619,125.436,213.884,125.436z"/>
	<path fill="#575756" d="M226.404,123.904h2.004v2.791c0.802-1.068,1.689-1.868,2.663-2.397c0.974-0.53,2.033-0.794,3.179-0.794
		c1.164,0,2.197,0.296,3.099,0.888c0.902,0.592,1.568,1.388,1.998,2.391c0.429,1.002,0.644,2.563,0.644,4.682v8.018h-2.004v-7.431
		c0-1.794-0.074-2.992-0.223-3.594c-0.231-1.031-0.678-1.806-1.336-2.327c-0.659-0.52-1.518-0.78-2.577-0.78
		c-1.213,0-2.299,0.402-3.258,1.203s-1.592,1.794-1.897,2.978c-0.191,0.773-0.287,2.186-0.287,4.238v5.712h-2.004V123.904z"/>
	<path fill="#575756" d="M259.805,123.904v15.577h-1.976v-2.677c-0.839,1.021-1.782,1.79-2.828,2.305
		c-1.045,0.515-2.188,0.772-3.429,0.772c-2.205,0-4.087-0.799-5.648-2.398c-1.561-1.599-2.341-3.543-2.341-5.834
		c0-2.243,0.788-4.161,2.363-5.755c1.574-1.593,3.469-2.391,5.683-2.391c1.279,0,2.437,0.271,3.472,0.816s1.944,1.36,2.727,2.448
		v-2.863H259.805z M251.795,125.436c-1.116,0-2.146,0.274-3.089,0.822c-0.944,0.548-1.695,1.318-2.253,2.31
		c-0.557,0.992-0.836,2.04-0.836,3.146c0,1.098,0.281,2.146,0.843,3.146c0.563,1.001,1.318,1.78,2.267,2.338
		s1.966,0.836,3.053,0.836c1.097,0,2.136-0.276,3.118-0.829c0.981-0.553,1.737-1.301,2.266-2.245s0.794-2.007,0.794-3.189
		c0-1.801-0.593-3.308-1.78-4.519C254.991,126.041,253.53,125.436,251.795,125.436z"/>
	<path fill="#575756" d="M277.745,123.904h2.004v12.412c0,2.187-0.191,3.785-0.573,4.797c-0.525,1.431-1.436,2.534-2.734,3.307
		c-1.298,0.772-2.859,1.16-4.682,1.16c-1.336,0-2.537-0.189-3.601-0.567c-1.064-0.378-1.93-0.886-2.599-1.522
		c-0.668-0.636-1.283-1.567-1.846-2.792h2.176c0.593,1.03,1.357,1.794,2.293,2.29s2.097,0.745,3.483,0.745
		c1.367,0,2.521-0.254,3.462-0.763c0.941-0.509,1.613-1.149,2.014-1.919c0.401-0.771,0.602-2.015,0.602-3.731v-0.802
		c-0.755,0.954-1.677,1.687-2.766,2.198c-1.089,0.511-2.245,0.766-3.468,0.766c-1.433,0-2.781-0.355-4.042-1.067
		c-1.261-0.711-2.235-1.668-2.923-2.87c-0.688-1.203-1.031-2.525-1.031-3.966c0-1.44,0.358-2.785,1.075-4.03
		c0.717-1.246,1.708-2.231,2.974-2.957c1.266-0.725,2.602-1.088,4.005-1.088c1.166,0,2.252,0.241,3.261,0.723
		c1.008,0.482,1.98,1.277,2.917,2.384V123.904z M271.832,125.436c-1.136,0-2.19,0.274-3.165,0.823
		c-0.973,0.549-1.737,1.308-2.29,2.276c-0.554,0.969-0.831,2.017-0.831,3.143c0,1.708,0.573,3.121,1.719,4.238
		s2.629,1.674,4.453,1.674c1.842,0,3.324-0.553,4.445-1.66c1.122-1.107,1.682-2.563,1.682-4.366c0-1.174-0.258-2.222-0.772-3.143
		c-0.516-0.92-1.246-1.648-2.19-2.184C273.936,125.703,272.919,125.436,271.832,125.436z"/>
	<path fill="#575756" d="M297.158,134.312l1.69,0.888c-0.555,1.088-1.194,1.966-1.92,2.634c-0.726,0.669-1.543,1.177-2.451,1.525
		c-0.907,0.349-1.935,0.522-3.081,0.522c-2.542,0-4.529-0.833-5.961-2.498c-1.433-1.665-2.15-3.548-2.15-5.648
		c0-1.976,0.607-3.737,1.82-5.283c1.538-1.965,3.597-2.949,6.176-2.949c2.656,0,4.776,1.007,6.362,3.021
		c1.128,1.423,1.701,3.198,1.72,5.326h-14.016c0.038,1.809,0.616,3.293,1.734,4.45c1.118,1.156,2.499,1.734,4.143,1.734
		c0.793,0,1.564-0.138,2.315-0.413c0.75-0.276,1.387-0.642,1.913-1.098C295.978,136.066,296.547,135.33,297.158,134.312z
		 M297.158,130.118c-0.267-1.069-0.657-1.923-1.168-2.563c-0.512-0.639-1.188-1.154-2.028-1.546
		c-0.841-0.391-1.725-0.587-2.652-0.587c-1.529,0-2.843,0.492-3.942,1.475c-0.803,0.716-1.41,1.79-1.821,3.222H297.158z"/>
	<path fill="#575756" d="M303.086,123.904h2.004v2.691c0.697-0.992,1.415-1.719,2.15-2.176c1.014-0.611,2.079-0.917,3.197-0.917
		c0.754,0,1.471,0.148,2.149,0.444c0.678,0.296,1.233,0.689,1.662,1.181c0.431,0.492,0.803,1.195,1.119,2.111
		c0.667-1.221,1.498-2.149,2.499-2.784c1-0.635,2.076-0.952,3.228-0.952c1.075,0,2.025,0.271,2.849,0.816
		c0.825,0.544,1.435,1.303,1.836,2.276c0.401,0.973,0.6,2.434,0.6,4.381v8.504h-2.047v-8.504c0-1.67-0.12-2.818-0.356-3.443
		c-0.239-0.625-0.645-1.128-1.221-1.511c-0.575-0.381-1.263-0.572-2.062-0.572c-0.97,0-1.858,0.287-2.661,0.859
		c-0.805,0.573-1.391,1.336-1.763,2.291c-0.37,0.955-0.556,2.548-0.556,4.781v6.1h-2.004v-7.975c0-1.88-0.117-3.157-0.352-3.83
		c-0.233-0.673-0.642-1.211-1.224-1.617c-0.582-0.406-1.274-0.609-2.075-0.609c-0.926,0-1.792,0.279-2.599,0.838
		c-0.807,0.558-1.403,1.31-1.79,2.254c-0.386,0.945-0.58,2.391-0.58,4.338v6.6h-2.004V123.904z"/>
	<path fill="#575756" d="M343.718,134.312l1.689,0.888c-0.554,1.088-1.193,1.966-1.92,2.634c-0.726,0.669-1.544,1.177-2.45,1.525
		c-0.908,0.349-1.936,0.522-3.083,0.522c-2.541,0-4.528-0.833-5.959-2.498c-1.434-1.665-2.151-3.548-2.151-5.648
		c0-1.976,0.607-3.737,1.821-5.283c1.537-1.965,3.596-2.949,6.176-2.949c2.654,0,4.776,1.007,6.362,3.021
		c1.126,1.423,1.699,3.198,1.72,5.326h-14.017c0.038,1.809,0.616,3.293,1.733,4.45c1.119,1.156,2.499,1.734,4.144,1.734
		c0.793,0,1.564-0.138,2.315-0.413c0.749-0.276,1.388-0.642,1.914-1.098C342.538,136.066,343.106,135.33,343.718,134.312z
		 M343.718,130.118c-0.269-1.069-0.658-1.923-1.168-2.563c-0.513-0.639-1.189-1.154-2.029-1.546
		c-0.842-0.391-1.724-0.587-2.652-0.587c-1.528,0-2.842,0.492-3.941,1.475c-0.803,0.716-1.41,1.79-1.821,3.222H343.718z"/>
	<path fill="#575756" d="M349.66,123.904h2.003v2.791c0.803-1.068,1.691-1.868,2.665-2.397c0.972-0.53,2.032-0.794,3.177-0.794
		c1.165,0,2.198,0.296,3.101,0.888c0.901,0.592,1.567,1.388,1.997,2.391c0.43,1.002,0.644,2.563,0.644,4.682v8.018h-2.003v-7.431
		c0-1.794-0.076-2.992-0.223-3.594c-0.233-1.031-0.678-1.806-1.337-2.327c-0.658-0.52-1.518-0.78-2.577-0.78
		c-1.212,0-2.299,0.402-3.258,1.203s-1.593,1.794-1.897,2.978c-0.191,0.773-0.288,2.186-0.288,4.238v5.712h-2.003V123.904z"/>
	<path fill="#575756" d="M369.287,118.12h2.005v5.784h3.177v1.732h-3.177v13.845h-2.005v-13.845h-2.734v-1.732h2.734V118.12z"/>
	<path fill="#575756" d="M401.113,123.904v15.577h-1.975v-2.677c-0.84,1.021-1.784,1.79-2.829,2.305
		c-1.045,0.515-2.188,0.772-3.429,0.772c-2.205,0-4.086-0.799-5.647-2.398c-1.561-1.599-2.342-3.543-2.342-5.834
		c0-2.243,0.788-4.161,2.362-5.755c1.576-1.593,3.47-2.391,5.685-2.391c1.278,0,2.436,0.271,3.471,0.816
		c1.037,0.544,1.946,1.36,2.729,2.448v-2.863H401.113z M393.103,125.436c-1.114,0-2.144,0.274-3.089,0.822
		c-0.943,0.548-1.694,1.318-2.252,2.31s-0.835,2.04-0.835,3.146c0,1.098,0.28,2.146,0.842,3.146c0.563,1.001,1.319,1.78,2.267,2.338
		c0.949,0.558,1.966,0.836,3.054,0.836c1.096,0,2.135-0.276,3.118-0.829s1.736-1.301,2.266-2.245
		c0.529-0.944,0.794-2.007,0.794-3.189c0-1.801-0.593-3.308-1.78-4.519C396.3,126.041,394.839,125.436,393.103,125.436z"/>
	<path fill="#575756" d="M405.625,123.904h2.003v2.791c0.803-1.068,1.69-1.868,2.665-2.397c0.972-0.53,2.032-0.794,3.177-0.794
		c1.165,0,2.198,0.296,3.101,0.888c0.901,0.592,1.567,1.388,1.997,2.391c0.429,1.002,0.644,2.563,0.644,4.682v8.018h-2.003v-7.431
		c0-1.794-0.076-2.992-0.223-3.594c-0.233-1.031-0.678-1.806-1.337-2.327c-0.658-0.52-1.519-0.78-2.577-0.78
		c-1.212,0-2.299,0.402-3.258,1.203c-0.958,0.801-1.592,1.794-1.897,2.978c-0.191,0.773-0.287,2.186-0.287,4.238v5.712h-2.003
		V123.904z"/>
	<path fill="#575756" d="M439.053,117.891v21.59h-1.975v-2.677c-0.84,1.021-1.784,1.79-2.829,2.305
		c-1.045,0.515-2.188,0.772-3.429,0.772c-2.205,0-4.086-0.799-5.647-2.398c-1.561-1.599-2.342-3.543-2.342-5.834
		c0-2.243,0.788-4.161,2.362-5.755c1.576-1.593,3.469-2.391,5.684-2.391c1.278,0,2.437,0.271,3.471,0.816
		c1.037,0.544,1.946,1.36,2.729,2.448v-8.876H439.053z M431.042,125.436c-1.114,0-2.144,0.274-3.089,0.822
		c-0.943,0.548-1.694,1.318-2.252,2.31s-0.837,2.04-0.837,3.146c0,1.098,0.282,2.146,0.844,3.146
		c0.563,1.001,1.319,1.78,2.267,2.338c0.949,0.558,1.966,0.836,3.054,0.836c1.095,0,2.135-0.276,3.118-0.829
		c0.98-0.553,1.736-1.301,2.266-2.245c0.529-0.944,0.794-2.007,0.794-3.189c0-1.801-0.593-3.308-1.78-4.519
		C434.24,126.041,432.779,125.436,431.042,125.436z"/>
	<path fill="#575756" d="M452.038,139.481V118.42h4.365c3.15,0,5.436,0.253,6.86,0.759c2.042,0.716,3.638,1.957,4.788,3.722
		c1.149,1.766,1.725,3.871,1.725,6.314c0,2.109-0.455,3.966-1.366,5.569c-0.912,1.604-2.095,2.787-3.551,3.551
		c-1.456,0.764-3.496,1.146-6.12,1.146H452.038z M454.057,137.491h2.433c2.911,0,4.93-0.181,6.057-0.543
		c1.584-0.515,2.83-1.442,3.736-2.782c0.907-1.34,1.36-2.978,1.36-4.914c0-2.031-0.491-3.767-1.474-5.207
		c-0.984-1.44-2.354-2.427-4.11-2.961c-1.317-0.4-3.488-0.601-6.515-0.601h-1.488V137.491z"/>
	<path fill="#575756" d="M474.222,117.49c0.455,0,0.846,0.163,1.168,0.486c0.323,0.325,0.485,0.716,0.485,1.174
		c0,0.449-0.162,0.835-0.485,1.16c-0.322,0.325-0.713,0.487-1.168,0.487c-0.448,0-0.832-0.162-1.155-0.487
		c-0.322-0.325-0.485-0.711-0.485-1.16c0-0.458,0.163-0.85,0.485-1.174C473.39,117.653,473.774,117.49,474.222,117.49z
		 M473.226,123.904h2.006v15.577h-2.006V123.904z"/>
	<path fill="#575756" d="M487.229,125.607l-1.288,1.332c-1.072-1.04-2.121-1.561-3.144-1.561c-0.651,0-1.209,0.215-1.674,0.644
		c-0.463,0.43-0.694,0.931-0.694,1.504c0,0.506,0.19,0.987,0.572,1.446c0.383,0.467,1.188,1.017,2.411,1.646
		c1.491,0.773,2.506,1.518,3.042,2.234c0.525,0.725,0.788,1.541,0.788,2.448c0,1.279-0.448,2.362-1.348,3.25
		c-0.897,0.887-2.022,1.331-3.37,1.331c-0.897,0-1.756-0.195-2.573-0.586c-0.818-0.392-1.494-0.931-2.028-1.618l1.26-1.431
		c1.022,1.155,2.109,1.732,3.258,1.732c0.803,0,1.486-0.258,2.051-0.773c0.564-0.515,0.847-1.121,0.847-1.818
		c0-0.572-0.186-1.083-0.56-1.532c-0.372-0.438-1.214-0.992-2.524-1.66c-1.406-0.726-2.363-1.441-2.87-2.148
		c-0.506-0.706-0.76-1.513-0.76-2.419c0-1.184,0.404-2.167,1.211-2.95c0.808-0.782,1.829-1.173,3.062-1.173
		C484.333,123.503,485.775,124.205,487.229,125.607z"/>
	<path fill="#575756" d="M492.526,118.12h2.005v5.784h3.177v1.732h-3.177v13.845h-2.005v-13.845h-2.734v-1.732h2.734V118.12z"/>
	<path fill="#575756" d="M499.957,123.904h2.048v2.276c0.61-0.897,1.254-1.568,1.933-2.012c0.678-0.444,1.384-0.666,2.12-0.666
		c0.553,0,1.145,0.177,1.774,0.529l-1.046,1.69c-0.42-0.182-0.772-0.272-1.059-0.272c-0.668,0-1.313,0.275-1.933,0.824
		c-0.62,0.548-1.094,1.4-1.418,2.555c-0.249,0.888-0.372,2.683-0.372,5.383v5.269h-2.048V123.904z"/>
	<path fill="#575756" d="M510.229,117.49c0.455,0,0.846,0.163,1.169,0.486c0.322,0.325,0.485,0.716,0.485,1.174
		c0,0.449-0.163,0.835-0.485,1.16c-0.323,0.325-0.714,0.487-1.169,0.487c-0.447,0-0.831-0.162-1.154-0.487s-0.485-0.711-0.485-1.16
		c0-0.458,0.162-0.85,0.485-1.174C509.398,117.653,509.782,117.49,510.229,117.49z M509.234,123.904h2.005v15.577h-2.005V123.904z"
		/>
	<path fill="#575756" d="M515.533,139.481v-21.59h2.006v8.69c0.839-1.031,1.776-1.802,2.816-2.312
		c1.04-0.511,2.18-0.766,3.419-0.766c2.203,0,4.083,0.799,5.642,2.397c1.559,1.6,2.339,3.539,2.339,5.82
		c0,2.253-0.786,4.175-2.36,5.77c-1.572,1.594-3.466,2.391-5.678,2.391c-1.268,0-2.416-0.272-3.447-0.815
		c-1.029-0.544-1.939-1.36-2.73-2.448v2.863H515.533z M523.55,137.949c1.114,0,2.143-0.275,3.086-0.824
		c0.943-0.548,1.692-1.319,2.25-2.312c0.557-0.992,0.836-2.042,0.836-3.15s-0.281-2.162-0.844-3.164
		c-0.562-1.002-1.315-1.782-2.264-2.341c-0.947-0.558-1.958-0.837-3.035-0.837c-1.096,0-2.136,0.279-3.121,0.837
		c-0.986,0.559-1.743,1.311-2.271,2.255c-0.529,0.944-0.793,2.009-0.793,3.192c0,1.804,0.593,3.312,1.778,4.524
		C520.359,137.343,521.818,137.949,523.55,137.949z"/>
	<path fill="#575756" d="M535.149,123.904h2.004v7.272c0,1.775,0.096,2.998,0.287,3.666c0.286,0.955,0.834,1.708,1.642,2.262
		c0.807,0.554,1.771,0.83,2.89,0.83c1.117,0,2.066-0.27,2.846-0.809c0.779-0.539,1.316-1.248,1.612-2.126
		c0.201-0.601,0.301-1.875,0.301-3.823v-7.272h2.048v7.646c0,2.147-0.25,3.765-0.752,4.853c-0.501,1.088-1.255,1.94-2.261,2.556
		c-1.008,0.615-2.271,0.923-3.787,0.923c-1.519,0-2.785-0.308-3.801-0.923c-1.018-0.616-1.775-1.475-2.277-2.578
		c-0.501-1.103-0.751-2.76-0.751-4.975V123.904z"/>
	<path fill="#575756" d="M554.978,118.12h2.005v5.784h3.177v1.732h-3.177v13.845h-2.005v-13.845h-2.734v-1.732h2.734V118.12z"/>
	<path fill="#575756" d="M563.863,117.49c0.455,0,0.845,0.163,1.168,0.486c0.323,0.325,0.485,0.716,0.485,1.174
		c0,0.449-0.162,0.835-0.485,1.16s-0.713,0.487-1.168,0.487c-0.448,0-0.832-0.162-1.155-0.487c-0.322-0.325-0.485-0.711-0.485-1.16
		c0-0.458,0.163-0.85,0.485-1.174C563.031,117.653,563.415,117.49,563.863,117.49z M562.867,123.904h2.005v15.577h-2.005V123.904z"
		/>
	<path fill="#575756" d="M576.412,123.503c2.398,0,4.389,0.868,5.966,2.605c1.434,1.584,2.151,3.46,2.151,5.626
		c0,2.176-0.758,4.078-2.272,5.706c-1.517,1.627-3.465,2.44-5.845,2.44c-2.392,0-4.344-0.813-5.858-2.44
		c-1.517-1.627-2.274-3.529-2.274-5.706c0-2.157,0.717-4.028,2.152-5.612C572.008,124.376,574.001,123.503,576.412,123.503z
		 M576.405,125.465c-1.667,0-3.1,0.615-4.297,1.847c-1.196,1.23-1.795,2.719-1.795,4.467c0,1.126,0.271,2.176,0.818,3.149
		c0.546,0.974,1.283,1.725,2.213,2.255c0.928,0.529,1.949,0.794,3.061,0.794c1.11,0,2.13-0.265,3.06-0.794
		c0.929-0.53,1.666-1.282,2.212-2.255c0.546-0.973,0.819-2.023,0.819-3.149c0-1.748-0.602-3.236-1.804-4.467
		C579.49,126.08,578.061,125.465,576.405,125.465z"/>
	<path fill="#575756" d="M588.236,123.904h2.004v2.791c0.803-1.068,1.69-1.868,2.664-2.397c0.973-0.53,2.032-0.794,3.178-0.794
		c1.164,0,2.197,0.296,3.101,0.888c0.901,0.592,1.567,1.388,1.996,2.391c0.43,1.002,0.645,2.563,0.645,4.682v8.018h-2.004v-7.431
		c0-1.794-0.075-2.992-0.223-3.594c-0.233-1.031-0.678-1.806-1.338-2.327c-0.657-0.52-1.518-0.78-2.576-0.78
		c-1.212,0-2.3,0.402-3.258,1.203c-0.959,0.801-1.593,1.794-1.897,2.978c-0.191,0.773-0.287,2.186-0.287,4.238v5.712h-2.004V123.904
		z"/>
</g>
<g>
	<path fill="#0281C3" d="M187.555,10.587l24.485,42.411l-24.485,42.408h-48.971l-24.485-42.408l24.485-42.411H187.555
		 M192.174,2.587h-58.208l-29.104,50.411l29.104,50.408h58.208l29.104-50.408L192.174,2.587L192.174,2.587z"/>
</g>
</svg>
